<svg class="icon" viewBox="0 0 1675 1024" xmlns="http://www.w3.org/2000/svg" width="128" height="128"><path d="M1025.583 114.036C1268.55 172.684 1555.92 381.3 1556.759 512c0 126.51-272.29 340.992-530.339 397.126-83.781 20.107-145.78 21.783-201.076 21.783-55.296 0-118.132-1.676-201.076-21.783C365.475 852.992 94.022 638.51 94.022 512c0-130.7 286.534-339.316 529.5-397.964C712.24 93.091 769.21 93.091 824.507 93.091c55.296 0 112.268 0 201.077 20.945zM824.506 813.615A301.428 301.428 0 001126.121 512a301.428 301.428 0 00-301.615-301.615A301.428 301.428 0 00522.892 512a301.428 301.428 0 00301.614 301.615zM623.43 512a201.076 201.076 0 11402.153 0 201.076 201.076 0 01-402.153 0z"/></svg>