<svg t="1573616701483" class="icon" viewBox="0 0 1170 1024" version="1.1" xmlns="http://www.w3.org/2000/svg" p-id="11872" width="128" height="128"><path d="M1024 1024H146.285714a146.285714 146.285714 0 0 1-146.285714-146.285714V146.285714a146.285714 146.285714 0 0 1 146.285714-146.285714h877.714286a146.285714 146.285714 0 0 1 146.285714 146.285714v731.428572a146.285714 146.285714 0 0 1-146.285714 146.285714z m0-877.714286H146.285714v603.062857a211.382857 211.382857 0 0 0 256-50.249142s224.329143-276.699429 473.673143-247.808a296.521143 296.521143 0 0 1 147.821714 59.830857V146.285714zM386.267429 512A128 128 0 1 1 512 384 126.829714 126.829714 0 0 1 386.267429 512z" p-id="11873"></path></svg>