<svg xmlns="http://www.w3.org/2000/svg" width="128" height="128"><path d="M81.75 5.043L64.017 45.88 46.968 5.119C45.938 2.074 42.885 0 39.432 0h-12.15c-5.584 0-9.403 5.209-7.33 9.999l22.106 38.438H27.295c-4.382 0-7.926 3.296-7.895 7.343l.032 4.175c.03 4.006 3.555 7.239 7.895 7.239H44.79l4.52.022v9.189H27.24c-4.36 0-7.895 3.264-7.895 7.291v3.452c0 4.027 3.534 7.292 7.895 7.292h22.07v26.274c0 4.026 2.625 7.29 6.986 7.29h11.509c4.359 0 7.143-3.264 7.143-7.29V94.441h25.236c4.359 0 7.896-3.265 7.896-7.292v-3.452c0-4.028-3.536-7.292-7.896-7.292H74.947V67.15l3.611.044h21.625c4.359 0 7.896-3.265 7.896-7.291v-4.175c0-4.026-3.536-7.292-7.896-7.292H85.977l22.107-38.438C110.158 5.209 106.339 0 100.754 0H89.26c-3.422 0-6.455 2.037-7.51 5.043z"/></svg>