<svg xmlns="http://www.w3.org/2000/svg" width="256" height="256"><path d="M131.276 94.319c-9.015-.661-18.244 2.47-25.125 9.359-6.898 6.899-10.019 16.108-9.362 25.134l-24.832 54.603 54.604-24.828c9.024.656 18.253-2.467 25.135-9.364 6.902-6.896 10.021-16.096 9.364-25.126l24.829-54.604-54.613 24.826zm7.642 42.12c-5.518 5.518-14.437 5.518-19.95 0-5.52-5.508-5.52-14.427 0-19.939a14.078 14.078 0 0119.95 0c5.498 5.517 5.498 14.431 0 19.939zM128.939-2.438C57.732-2.438.032 55.273.032 126.471c0 71.215 57.701 128.914 128.908 128.914 71.206 0 128.915-57.698 128.915-128.914-.001-71.208-57.71-128.909-128.916-128.909zm0 239.701c-61.171 0-110.783-49.607-110.783-110.792 0-61.172 49.612-110.784 110.783-110.784 61.186 0 110.784 49.612 110.784 110.784 0 61.185-49.598 110.792-110.784 110.792z"/></svg>