<svg xmlns="http://www.w3.org/2000/svg" width="128" height="128"><path d="M83.627 87.412c3.996.071 7.358-1.021 9.022-4.765 1.772-3.996.864-7.767-2.154-10.977a133.2 133.2 0 00-3.272-3.325c-2.527-2.52-2.479-5.044-.236-7.761 2.079-2.529 4.215-5.063 5.963-7.811 9.472-14.813 6.166-34.132-7.596-45.109C71.518-3.396 51.387-2.372 38.93 10.003c-13.537 13.446-11.342 35.63.706 50.66 2.785 3.462 1.514 5.65-.156 7.736-.531.675-2.691 3.068-3.128 3.671-2.132 2.936-2.697 7.546-1.873 10.359 1.167 3.965 5.157 4.417 8.123 4.707l41.022.275h.003zm36.558 16.125c-.021-6.662-3.091-9.834-10.168-9.844-30.701-.057-61.393-.041-92.088.04-7.034.01-10.012 2.916-10.105 9.335-.038 2.99-.006 5.981-.006 9.322h112.371c0-3.178.016-6.022 0-8.854h-.004zM14.048 128h99.902v-9.365H14.048V128z"/></svg>