<svg t="1573786039856" class="icon" viewBox="0 0 1025 1024" version="1.1" xmlns="http://www.w3.org/2000/svg" p-id="8914" width="128" height="128"><path d="M107.521011 107.23924 916.486213 107.23924 916.486213 275.225468 1023.732679 275.225468 1023.732679 0 1019.961279 0 138.2413 0 0.267321 0 0.267321 0.317896 0.267321 137.959529 0.267321 859.19273 0.267321 997.159484 0.267321 997.499055 241.868089 997.499055 241.868089 997.159484 255.754353 997.159484 255.754353 889.913019 107.521011 889.913019Z" p-id="8915"></path><path d="M986.979595 575.90427l-64.872407 0c-6.126718-13.170999-14.789377-40.596732-25.886829-60.125646l45.820337-44.534304c14.478706-14.471481 14.493156-37.229927 0.036125-51.679734l-52.3083-51.990404c-14.449807-14.442582-37.858493-14.298084-52.329975 0.173398l-43.277171 45.892586c-19.500014-11.083002-46.918522-19.695087-60.096746-25.807355l0-64.879632c0-20.446476-21.667485-37.005955-42.077837-37.005955L617.996557 285.947224c-20.424802 0-42.099512 16.559478-42.099512 37.005955l0 64.879632c-13.170999 6.112268-40.567832 14.796602-60.103971 25.879604l-44.541529-45.827562c-14.471481-14.471481-37.251602-14.471481-51.679734-0.021675l-51.98318 52.32275c-14.442582 14.435357-14.298084 37.851269 0.173398 52.329975l45.899811 43.277171c-11.097452 19.528914-19.695087 46.925747-25.807355 60.111196l-64.872407 0c-20.468151 0-37.020405 21.66026-37.020405 42.077837l0 73.975785c0 20.410352 16.552254 42.085062 37.020405 42.085062l64.886857 0c6.112268 13.178224 14.796602 40.575057 25.872379 60.111196l-45.827562 44.563204c-14.471481 14.471481-14.471481 37.215477-0.021675 51.658059l52.301075 52.004854c14.435357 14.428132 37.872943 14.290859 52.3372-0.180623l43.277171-45.907036c19.528914 11.075777 46.932972 19.695087 60.111196 25.80013l0 64.879632c0 20.453701 21.667485 37.005955 42.070612 37.005955l73.98301 0c20.410352 0 42.085062-16.552254 42.085062-37.020405l0-64.879632c13.178224-6.119493 40.575057-14.803827 60.125646-25.886829l44.548754 45.834787c14.464256 14.464256 37.215477 14.464256 51.665284 0.021675l51.997629-52.3083c14.428132-14.442582 14.290859-37.858493-0.180623-52.329975l-45.907036-43.269946c11.090227-19.536139 19.702311-46.918522 25.807355-60.096746l64.879632 0c20.453701 0 37.005955-21.667485 37.005955-42.077837L1024 618.003782C1024.007225 597.56453 1007.447746 575.90427 986.979595 575.90427M654.980837 821.399261c-91.92967 0-166.447323-74.510428-166.447323-166.432873 0-91.92967 74.517653-166.447323 166.447323-166.447323 91.936895 0 166.440098 74.517653 166.440098 166.447323C821.420935 746.874383 746.917732 821.399261 654.980837 821.399261z" p-id="8916"></path></svg>