<svg xmlns="http://www.w3.org/2000/svg" width="133.875" height="128"><path d="M128.782 44.776V34.542l-12.137.034V18.702c0-4.023-2.07-6.279-6.093-6.279H95.924V0H85.571v12.423H70.018V0H59.665l-.017 12.423H44.094L44.128 0H33.725l.017 12.423H20.124c-5 0-7.053 2.256-7.02 7.474l-.101 14.679H.648v10.201h12.355v14.292L.648 59.051v10.353l12.355.034v14.51H.648v10.168h12.355v13.87c0 5.724 2.306 8.097 8.046 8.097h12.692L33.725 128H44.06l.051-11.918h15.554V128h10.386l-.016-11.918h15.553L85.555 128h10.387l.016-11.918h13.854c4.646 0 6.868-4.09 6.868-8.097v-13.87h12.137V83.947h-12.171v-14.51h12.137V59.102l-12.137-.034V44.776h12.136zm-22.506 60.937H23.373V22.792h82.92v82.921h-.017zm-65.582-13.08h49.792c1.986 0 2.711-1.363 2.711-3.164V39.558c0-2.121-1.447-3.299-3.165-3.299h-49.86c-2.592 0-3.35.959-3.35 3.569v48.917c0 2.593 1.28 3.888 3.872 3.888z"/></svg>