<svg class="icon" viewBox="0 0 1280 1024" xmlns="http://www.w3.org/2000/svg" width="64" height="64"><path d="M1234.688 48.043H125.355a42.667 42.667 0 00-42.667 42.666v853.334a42.667 42.667 0 0042.667 42.666h1109.333a42.667 42.667 0 0042.667-42.666V90.709a42.667 42.667 0 00-42.667-42.666zm-41.813 856.064H170.837V133.376H1192.96v770.73zM317.952 780.97L547.84 550.912l152.576 152.747a10.667 10.667 0 0015.019 0l396.032-396.288a10.667 10.667 0 000-15.104L1062.4 243.2a10.667 10.667 0 00-15.104 0L708.011 582.656 555.435 430.08a10.667 10.667 0 00-15.019 0L253.866 716.8a10.667 10.667 0 000 15.019l48.897 49.237a10.667 10.667 0 0015.104 0z"/></svg>