<svg t="1569642256122" class="icon" viewBox="0 0 1024 1024" version="1.1" xmlns="http://www.w3.org/2000/svg" p-id="35627" width="128" height="128"><path d="M512 0a512 512 0 0 1 512 512 512 512 0 0 1-512 512 512 512 0 0 1-512-512 512 512 0 0 1 512-512z m68.032 512.128l135.744-135.744a48 48 0 0 0-67.84-67.84L512.128 444.16l-135.744-135.68a48 48 0 1 0-67.84 67.84l135.68 135.744-135.68 135.808a48 48 0 0 0 67.84 67.84l135.744-135.744 135.808 135.744a48 48 0 0 0 67.84-67.84L580.032 512.128z" p-id="35628"></path></svg>