<svg t="1573785844084" class="icon" viewBox="0 0 1024 1024" version="1.1" xmlns="http://www.w3.org/2000/svg" p-id="3868" width="128" height="128"><path d="M146.076255 1023.727215a111.262096 111.262096 0 0 1-77.30039-30.892877 108.807033 108.807033 0 0 1-34.098099-77.30039V109.727681a109.113916 109.113916 0 0 1 34.098099-78.221038 112.523725 112.523725 0 0 1 78.766608-30.961073h731.370117a110.818821 110.818821 0 0 1 110.47784 108.193267v805.908561a111.091605 111.091605 0 0 1-111.330292 109.113915h-1.943592l-16.537578-0.272784L511.948853 793.565049 164.489228 1023.45443l-16.50348 0.272785h-2.045886zM511.948853 660.002797l375.079085 227.604808v-784.256268H136.869768l9.308781 8.217642c0.511471 0-9.342879-7.70617-9.308781-8.217642v784.256268zM392.605508 240.187007h238.891279a50.942559 50.942559 0 0 1 51.147148 50.737971 51.147148 51.147148 0 0 1-51.147148 50.772068H392.605508A51.147148 51.147148 0 0 1 341.45836 290.890879a50.942559 50.942559 0 0 1 51.147148-50.703872z" p-id="3869"></path></svg>