<svg t="1569488170592" class="icon" viewBox="0 0 1029 1024" version="1.1" xmlns="http://www.w3.org/2000/svg" p-id="21974" width="128" height="128"><path d="M732.162541 645.382776c-0.171974-0.137579-0.378342-0.343947-0.550316-0.550316 264.564289-273.816472 322.760177-596.163912 287.230418-632.209593C975.986805-30.817681 657.663549 32.296655 382.815235 291.357786c-0.206368-0.206368-0.481526-0.447132-0.722289-0.722289l-0.068789-0.068789C341.128818 249.155448 280.353324 242.654843 239.251618 283.962918l-214.795109 215.654978c-41.067312 41.27368-29.201129 89.047965 26.483945 106.245331l27.515787 8.392315c52.967889 16.337498 127.08854-0.791079 169.566035-38.143759 12.622867 43.681311 41.961575 82.616149 78.523176 119.693672 36.527207 37.008733 74.980519 66.760177 118.283488 80.00215-37.834207 41.995969-55.891442 115.807067-40.310627 168.94693l8.082762 27.550181c16.440683 55.891442 64.077388 68.445519 105.901384 27.894129l218.475346-211.940347c41.85839-40.585785 36.183259-101.29249-4.746473-142.806933L732.162541 645.382776zM694.603492 174.278114c41.376864-40.826548 108.033857-40.413812 148.826011 0.928658 40.826548 41.376864 40.379417 107.999463-0.997447 148.860406-41.342469 40.792154-107.999463 40.345022-148.791616-0.997447C652.779497 281.761655 653.261023 215.070267 694.603492 174.278114z" p-id="21975"></path><path d="M274.643799 747.019213c-33.603654-33.981997-62.013704-69.270993-81.205965-106.761252-4.987236 3.095526-9.802499 6.500605-14.067446 10.765552-40.62018 40.03547-32.021497 115.291146 19.261051 167.192799 51.179363 51.867258 126.331855 61.463388 166.952035 21.427919 3.85221-3.817815 6.878947-8.254736 9.871288-12.691657C339.993792 807.416364 306.734085 779.522236 274.643799 747.019213z" p-id="21976"></path></svg>