<svg class="icon" viewBox="0 0 1024 1024" xmlns="http://www.w3.org/2000/svg" width="200" height="200"><path d="M860.746 512.583c-.002-58.77 32.17-109.536 79.517-137.161-9.595-29.644-22.255-58.761-38.463-86.835-16.888-29.25-36.765-55.637-58.704-79.519-47.516 26.916-107.33 29.262-158.047-.018-50.141-28.95-78.018-81.059-79.089-135.012-62.754-13.417-128.378-13.996-192.533.451-1.094 53.93-28.969 106.014-79.091 134.953-49.704 28.696-108.208 27.12-155.262 1.725-44.175 48.644-76.173 105.899-95.471 167.102 45.289 28.104 75.713 77.874 75.713 135.095 0 57.374-30.598 107.243-76.091 135.301 9.691 30.676 22.55 60.825 39.301 89.837 16.316 28.259 35.36 53.919 56.404 77.171 47.193-25.84 106.08-27.644 156.081 1.224 50.207 28.987 78.084 81.199 79.084 135.227 62.674 14.032 128.31 15.039 192.588 1.213.46-54.596 28.337-107.559 79.043-136.831 50.958-29.422 111.094-26.895 158.715.389 44.374-48.582 76.505-105.856 95.966-167.075-47.423-27.605-79.661-78.411-79.661-137.237zm-268.91 138.958c-76.212 44.001-173.668 17.888-217.669-58.324-44.003-76.212-17.888-173.668 58.324-217.669 76.215-44.001 173.668-17.888 217.669 58.324 44.001 76.213 17.89 173.668-58.324 217.669z"/></svg>