<svg t="1569550563229" class="icon" viewBox="0 0 1072 1024" version="1.1" xmlns="http://www.w3.org/2000/svg" p-id="25364" width="128" height="128"><path d="M1029.833017 1024H62.32913a43.612882 43.612882 0 0 1-42.857153-42.662126V707.812699c0-45.831313 21.428577-67.040484 45.928826-45.831313l131.643132 103.608021c18.381282 15.114582 42.881531 36.323753 58.166762 18.039985l150.048792-179.424714c15.28523-18.039985 39.78548-42.418343 58.166762-27.303761l128.595838 112.628014c18.356903 15.114582 55.095089 39.49294 67.357402 21.209171l321.477405-383.227785C1023.714049 278.997385 1072.714548 291.186564 1072.714548 348.963272v632.374602A45.880069 45.880069 0 0 1 1029.833017 1024zM653.260523 552.52256a79.8635 79.8635 0 0 1-49.000499 27.547544 63.38373 63.38373 0 0 1-52.047794-15.358365l-146.952741-121.648006-146.977119 191.613893a71.184805 71.184805 0 0 1-48.976121 27.30376h-9.190641a81.667499 81.667499 0 0 1-45.928826-15.114582l-128.595838-103.364237a71.574859 71.574859 0 0 1-9.19064-100.438834 72.74502 72.74502 0 0 1 101.048293-9.019992l70.404697 57.776708 146.977119-191.613893a79.473447 79.473447 0 0 1 48.976121-27.303761 72.59875 72.59875 0 0 1 55.119467 15.114582l146.97712 121.648006 189.809894-234.032235-52.047794-42.662127c-36.738185-30.472947-27.547544-63.871298 18.381282-72.891289L1014.547786 2.05924c48.976121-9.019992 61.214057 12.189179 33.666513 51.925902z m0 0" fill="" p-id="25365"></path></svg>