<svg class="icon" viewBox="0 0 1024 1024" xmlns="http://www.w3.org/2000/svg" width="200" height="200"><path d="M906.752 381.952L642.048 117.248c-22.016-22.016-58.368-22.016-80.896 0-22.016 22.016-22.016 58.368 0 80.896l55.296 55.296-138.24 138.752-52.736-52.736c-37.376-37.376-98.304-37.376-135.68 0l-107.52 107.52c-109.056 109.056-109.056 285.696 0 394.752 109.056 109.056 285.696 109.056 394.752 0l107.52-107.52c37.376-37.376 37.376-98.304 0-135.68l-52.224-52.224 138.752-138.752 55.296 55.296c22.016 22.016 58.368 22.016 80.896 0 22.016-22.528 22.016-58.88-.512-80.896zM493.056 577.536L293.888 776.704c-6.656 6.656-14.848 9.728-23.552 9.728s-16.896-3.072-23.552-9.728c-12.8-12.8-12.8-33.792 0-47.104l199.168-199.168c12.8-12.8 33.792-12.8 47.104 0 13.312 13.312 13.312 34.304 0 47.104z"/></svg>