<svg t="1573612151729" class="icon" viewBox="0 0 1024 1024" version="1.1" xmlns="http://www.w3.org/2000/svg" p-id="12175" width="128" height="128"><path d="M613.262 91.022C613.262 40.903 568.036 0 512.228 0c-55.752 0-101.149 40.732-101.149 91.022 0 5.177 0.398 10.24 1.309 15.076-139.606 43.804-254.294 178.346-254.294 337.465v125.326s0 157.923-49.322 159.46c-29.241 0-51.826 20.48-51.826 45.624 0 25.259 22.585 45.455 50.517 45.455h809.188c28.103 0 50.517-20.367 50.517-45.512 0-25.315-22.585-45.397-50.517-45.397-50.631 0-50.631-158.208-50.631-158.208V443.676c0-159.345-107.122-293.944-254.294-337.578 1.024-5.006 1.65-9.899 1.65-15.019zM663.78 870.4c-0.114 75.435-50.233 153.6-151.61 153.6S360.62 946.062 360.506 870.4H663.78z" p-id="12176"></path></svg>