<svg t="1569486600240" class="icon" viewBox="0 0 1024 1024" version="1.1" xmlns="http://www.w3.org/2000/svg" p-id="6419" width="128" height="128"><path d="M982.613333 453.717333h-197.333333a40.234667 40.234667 0 0 0-28.586667 11.989334 40.96 40.96 0 0 0-11.818666 28.757333v12.714667c0 22.442667 18.218667 40.661333 40.533333 40.661333h197.248a40.533333 40.533333 0 0 0 40.448-40.661333v-12.714667a40.96 40.96 0 0 0-11.818667-28.757333 40.234667 40.234667 0 0 0-28.629333-11.989334z m-457.557333-349.013333C463.658667 153.472 335.274667 221.866667 242.944 287.744h-0.128c-1.024 0.682667-2.048 4.352-3.2 4.906667-10.88 6.186667-15.786667 23.04-75.136 23.04H48.810667c-29.781333 0-48.128 13.952-48.128 45.354666v278.656c0 31.402667 16.853333 46.848 48.128 46.848h116.138666c58.965333 0.128 63.786667 16.981333 74.666667 23.04 1.024 0.554667 2.048 4.266667 3.114667 4.906667h0.085333c89.6 65.877333 218.794667 139.52 282.24 186.368 19.114667 14.08 82.602667 38.826667 82.602667-48.213333V149.333333c0-87.168-64.042667-59.306667-82.602667-44.672z m182.101333 192.170667c10.538667 18.474667 31.274667 23.168 46.421334 10.325333l162.048-136.661333c15.232-12.714667 18.901333-38.016 8.533333-56.576l-5.973333-10.410667c-10.453333-18.432-31.274667-23.04-46.421334-10.325333l-162.048 136.661333c-15.146667 12.8-18.901333 38.016-8.533333 56.576l5.973333 10.410667z m46.293334 397.952c-15.104-12.714667-35.84-8.021333-46.293334 10.282666l-5.973333 10.410667c-10.368 18.474667-6.613333 43.776 8.533333 56.618667l162.048 136.746666c15.146667 12.714667 35.84 8.106667 46.293334-10.325333l5.973333-10.410667c10.410667-18.432 6.613333-43.733333-8.533333-56.576l-162.048-136.746666z" p-id="6420"></path></svg>