<svg t="1573614929655" class="icon" viewBox="0 0 1024 1024" version="1.1" xmlns="http://www.w3.org/2000/svg" p-id="24016" width="130" height="130"><path d="M638.784 113.088a193.92 193.92 0 0 1-51.2 108.8 164.096 164.096 0 0 1-154.176 0 193.792 193.792 0 0 1-51.2-108.8c0-44.8 78.208-51.2 128-51.2s128.704 6.336 128.576 51.2z m-193.28 159.04l-44.8 357.568a140.8 140.8 0 0 0 35.648 106.624l74.304 82.56 77.312-81.408a140.8 140.8 0 0 0 38.4-110.976l-50.176-354.56a12.8 12.8 0 0 0-12.8-11.52H458.56a12.8 12.8 0 0 0-13.056 11.712z" p-id="24017"></path><path d="M889.216 960h-742.4a36.032 36.032 0 0 1-35.968-35.968V193.088a36.032 36.032 0 0 1 36.032-35.968h140.8v94.016h-83.2v614.912h626.24V251.136h-95.168V157.12h153.152a36.032 36.032 0 0 1 36.032 36.032v730.944a36.032 36.032 0 0 1-35.52 35.904z" p-id="24018"></path></svg>