<svg t="1573616385945" class="icon" viewBox="0 0 1200 1024" version="1.1" xmlns="http://www.w3.org/2000/svg" p-id="6142" width="128" height="128"><path d="M1184.554495 896.708579L676.533862 49.625842a83.525055 83.525055 0 0 0-152.673368 0L15.903476 896.708579a102.609226 102.609226 0 0 0-15.903476 52.227015c0 37.532203 28.626257 75.064406 92.812685 75.064406h1014.768986c64.250042 0 92.812685-37.532203 92.812686-75.064406a102.609226 102.609226 0 0 0-15.903476-52.227015zM534.356788 345.87579a65.713162 65.713162 0 0 1 131.362711 0v273.030873a65.713162 65.713162 0 0 1-131.362711 0z m65.713162 544.407785a65.585934 65.585934 0 1 1 0.31807 0z" p-id="6143"></path></svg>