<svg t="1573025607657" class="icon" viewBox="0 0 1024 1024" version="1.1" xmlns="http://www.w3.org/2000/svg" p-id="3905" width="128" height="128"><path d="M512 0A512 512 0 0 0 0 512a512 512 0 0 0 512 512A512 512 0 0 0 512 0z m11.4688 844.1856a336.7936 336.7936 0 0 1 0-673.5872 322.2528 322.2528 0 0 1 225.28 88.1664l-91.4432 87.9616a189.3376 189.3376 0 0 0-134.144-52.0192 212.5824 212.5824 0 0 0 0 425.1648c133.12 0 183.296-95.6416 190.976-145.2032H523.4688V459.264h318.1568a310.1696 310.1696 0 0 1 5.2224 55.808c0 192.512-129.1264 329.1136-323.3792 329.1136z" p-id="3906"></path></svg>