<svg class="icon" viewBox="0 0 1024 1024" xmlns="http://www.w3.org/2000/svg" width="128" height="128"><path d="M1011.657 553.76l-73.531-21.372c-14.617-4.172-24.126-17.577-24.446-32.846-.08-.274 0-.457 0-.731-.354-14.857 8-28.571 21.989-33.725l72.273-26.903a13.177 13.177 0 008.183-14.72l-6.651-32.708a13.063 13.063 0 00-13.532-10.286l-76.57 5.006c-15.12.88-28.571-8.24-34.16-22.468-.091-.275-.263-.378-.16-.549-5.474-13.943-2.286-29.611 9.074-39.28l58.765-50.193a12.868 12.868 0 002.538-16.686l-17.372-28.457a12.891 12.891 0 00-16.217-5.063l-70.045 30.709c-13.794 6.022-29.417 1.977-39.474-9.143-.171-.103-.251-.377-.605-.572a34.594 34.594 0 01-5.223-40.342l37.977-67.074a13.234 13.234 0 00-3.098-16.571l-26.056-20.754a12.868 12.868 0 00-16.937.8l-73.92 70.776c-5.657-3.6-11.028-7.291-16.88-10.548-9.222-5.12-18.65-9.44-28.274-13.851l16.572-100.8a12.857 12.857 0 00-8.732-14.365L655.66 20.575a12.948 12.948 0 00-15.68 6.549l-33.965 68.57c-6.583 13.51-21.326 20.4-36.217 18.39-.183-.104-.457 0-.812-.218-14.857-2.011-27.05-12.708-29.942-27.554l-14.069-75.736A13.063 13.063 0 00511.821.004L478.68.816a12.686 12.686 0 00-12.526 11.634l-8.411 76.09c-1.657 15.098-13.246 26.755-28.08 29.646a1.074 1.074 0 01-.72.057c-14.663 2.994-29.474-2.914-37.005-15.691l-39.131-66.548a12.88 12.88 0 00-16-5.417L305.823 42.86a13.188 13.188 0 00-7.92 15.097l18.286 74.434c3.428 14.674-3.2 29.554-16 37.53-.274.08-.377.264-.652.344-12.788 8-28.742 7.45-40.41-2.046l-59.691-49.143a12.983 12.983 0 00-16.915.355L157.7 141.534a12.994 12.994 0 00-2.194 16.892l42.525 63.782c8.354 12.571 7.085 28.994-2.286 40.765a1.554 1.554 0 01-.571.617c-9.314 11.76-24.434 16.823-38.548 11.749l-72.697-25.783a12.743 12.743 0 00-15.703 6.126L52.443 284.95a12.914 12.914 0 003.725 16.686l61.863 45.29c12.228 8.892 16.445 24.698 11.737 39.018a.754.754 0 00-.126.628c-4.571 14.137-17.223 24.308-32.4 24.457l-76.685.56a13.086 13.086 0 00-12.571 11.074l-4.8 32.846a12.983 12.983 0 009.143 14.377l73.519 21.37c14.617 4.184 24.114 17.578 24.446 32.858.08.274 0 .445 0 .731.354 14.857-8 28.571-21.989 33.725L16.25 585.553a13.177 13.177 0 00-8.183 14.72l6.651 32.708a13.051 13.051 0 0013.532 10.286l76.57-5.006c15.109-.88 28.571 8.24 34.16 22.469.069.274.263.377.16.56 5.474 13.942 2.286 29.61-9.074 39.28L71.31 750.762a12.88 12.88 0 00-2.549 16.686l17.372 28.456a12.88 12.88 0 0016.205 5.075l70.011-30.697c13.794-6.023 29.417-1.989 39.463 9.143.182.102.262.377.617.571a34.583 34.583 0 015.234 40.274l-37.988 67.085a13.257 13.257 0 003.097 16.571l26.057 20.743a12.868 12.868 0 0016.925-.8l73.908-70.777c5.714 3.612 11.029 7.292 16.88 10.549 9.223 5.131 18.663 9.44 28.274 13.863l-16.948 101.05a12.846 12.846 0 008.72 14.366l31.52 10.503a12.96 12.96 0 0015.725-6.583l33.965-68.571c6.583-13.52 21.314-20.4 36.217-18.388.171.102.457 0 .811.217 14.857 2.011 27.052 12.708 29.943 27.554l14.034 75.793a13.051 13.051 0 0013.177 10.549l33.143-.812a12.914 12.914 0 0012.491-11.622l8-76.285c1.657-15.097 13.257-26.754 28.091-29.646a1.143 1.143 0 01.732 0c14.662-2.994 29.474 2.926 36.994 15.691l39.13 66.548a12.88 12.88 0 0016 5.417l30.949-12.262a13.2 13.2 0 007.931-15.086l-18.285-74.433c-3.429-14.686 3.188-29.554 16-37.532.274-.08.377-.262.65-.33 12.79-8 28.743-7.464 40.412 2.033l59.68 49.143a12.983 12.983 0 0016.913-.343l24.915-22.194a12.983 12.983 0 002.194-16.88l-42.526-63.805c-8.354-12.571-7.085-29.006 2.286-40.766a1.554 1.554 0 01.572-.617c9.325-11.76 24.434-16.822 38.56-11.748l72.593 25.794a12.731 12.731 0 0015.703-6.126l15.702-29.085a12.914 12.914 0 00-3.714-16.697l-61.85-45.291c-12.23-8.892-16.446-24.686-11.738-39.017a.743.743 0 00.114-.64c4.572-14.137 17.235-24.308 32.4-24.457l77.21-.708a13.097 13.097 0 0012.744-11.097l4.89-33.017a12.971 12.971 0 00-9.21-14.366zm-779.89 22.456a14.548 14.548 0 01-8.355-10.023 295.254 295.254 0 0131.074-202.42c36.926-66.343 97.691-115.337 171.176-137.942a16.914 16.914 0 0115.463 2.48 16.251 16.251 0 016.64 13.394l-.972 223.015v.343c0 4.32-3.245 6.754-4.845 7.68L247.195 575.85a17.143 17.143 0 01-15.428.366zm487.32 140.216l-.182.183c-56.308 55.554-131.633 84.57-207.564 84.57a292.569 292.569 0 01-142.307-36.696A296.5 296.5 0 01293.4 704.26a10.548 10.548 0 01-2.445-9.143 12.948 12.948 0 016.685-9.223l202.421-107.313a17.383 17.383 0 0116.846.205L716.63 689.804a15.291 15.291 0 017.691 11.634 17.531 17.531 0 01-5.234 14.994zm80.332-144.65v.114a17.691 17.691 0 01-9.989 12.571 15.486 15.486 0 01-14.137-.537l-202.74-112.719a8.343 8.343 0 01-4.572-7.44l.72-225.198a15.668 15.668 0 016.308-12.57 18.286 18.286 0 0116-2.847 298.146 298.146 0 0164.182 26.503c113.382 63.028 172.684 195.484 144.228 322.123z"/></svg>