<svg class="icon" viewBox="0 0 1024 1024" xmlns="http://www.w3.org/2000/svg" width="200" height="200"><path d="M918.441 473.791H105.56c-27.766 0-50.275-22.509-50.275-50.275s22.509-50.275 50.275-50.275h812.882c27.766 0 50.275 22.509 50.275 50.275s-22.511 50.275-50.276 50.275z"/><path d="M810.836 383.297H213.168c-47.756 0-86.473 38.717-86.473 86.473l60.331 377.265c0 47.756 38.717 86.473 86.473 86.473h477.008c47.756 0 86.473-38.717 86.473-86.473l60.331-377.265c0-47.762-38.717-86.473-86.473-86.473zM382.894 747.69c0 27.766-22.508 50.275-50.275 50.275s-50.275-22.509-50.275-50.275V569.112c0-27.767 22.509-50.275 50.275-50.275 27.767 0 50.275 22.508 50.275 50.275V747.69zm179.381 0c0 27.766-22.508 50.275-50.275 50.275s-50.275-22.509-50.275-50.275V569.112c0-27.767 22.509-50.275 50.275-50.275 27.767 0 50.275 22.508 50.275 50.275V747.69zm179.38 0c0 27.766-22.508 50.275-50.275 50.275s-50.275-22.509-50.275-50.275V569.112c0-27.767 22.508-50.275 50.275-50.275s50.275 22.508 50.275 50.275V747.69zM347.817 333.836l92.547-168.897c13.343-24.35 4.42-54.907-19.931-68.25-24.35-13.344-54.908-4.42-68.25 19.931L233.161 333.834h114.657zm328.366 0l-92.547-168.897c-13.343-24.35-4.42-54.907 19.93-68.25 24.352-13.344 54.909-4.42 68.25 19.931l119.022 217.214H676.182z"/></svg>