<svg class="icon" viewBox="0 0 1024 1024" xmlns="http://www.w3.org/2000/svg" width="128" height="128"><path d="M195.989 852.907c0 61.227 50.709 113.387 113.28 113.387h377.749c62.613 0 113.301-52.16 113.301-113.387l75.563-593.877H120.405l75.584 593.877zm421.142-478.678h74.133v476.885h-74.133V374.229zm-163.776 0h89.621v476.885h-89.621V374.229zm-148.31 0H379.2v476.885h-74.155V374.229zm551.958-259.456H611.456s-16.917-72.107-37.803-72.107H422.592c-20.885 0-37.781 72.107-37.781 72.107H139.328c-31.317 0-56.683 26.624-56.683 57.237v57.963h830.997V172.01c0-30.635-25.387-57.237-56.64-57.237z"/></svg>