<svg class="icon" viewBox="0 0 1024 1024" xmlns="http://www.w3.org/2000/svg" width="128" height="128"><path d="M365.2 843.6l-28.8 67.8c-27.8 47.5-71 9.5-71 9.5l-144-232.8c-26.8-47.8 30.4-64.2 30.4-64.2l251.6-63.5c89.7-16 63.8 50.7 63.8 50.7l-29.5 67.8c380.9 133.3 497.4-142.1 497.4-142.1-98.7 477.1-569.9 306.8-569.9 306.8zM88.7 462.2C199.3-.5 664.7 176.4 665 176.4l30.4-65.5c28.5-45.2 71.3-7.2 71.3-7.2l137.4 229.8c25.5 47.1-32.1 61.9-32.1 61.9l-252.3 56c-90 13.4-62.2-50.7-62.2-50.7l30.8-65.5c-376.2-138.5-499.6 127-499.6 127z"/></svg>