<svg t="1567414543726" class="icon" viewBox="0 0 1675 1024" version="1.1" xmlns="http://www.w3.org/2000/svg" p-id="1994" width="128" height="128"><path d="M1025.582545 114.036364c242.967273 58.647273 530.338909 267.264 531.176728 397.963636 0 126.510545-272.290909 340.992-530.338909 397.125818-83.781818 20.107636-145.780364 21.783273-201.076364 21.783273-55.296 0-118.132364-1.675636-201.076364-21.783273C365.474909 852.992 94.021818 638.510545 94.021818 512c0-130.699636 286.533818-339.316364 529.501091-397.963636C712.238545 93.090909 769.210182 93.090909 824.506182 93.090909c55.296 0 112.267636 0 201.076363 20.945455zM824.506182 813.614545a301.428364 301.428364 0 0 0 301.614545-301.614545 301.428364 301.428364 0 0 0-301.614545-301.614545 301.428364 301.428364 0 0 0-301.614546 301.614545 301.428364 301.428364 0 0 0 301.614546 301.614545zM623.429818 512a201.076364 201.076364 0 1 1 402.152727 0 201.076364 201.076364 0 0 1-402.152727 0z" p-id="1995"></path></svg>