<svg t="1567472021916" class="icon" viewBox="0 0 1024 1024" version="1.1" xmlns="http://www.w3.org/2000/svg" p-id="8205" width="128" height="128"><path d="M911.801 700.411H810.463l-23.034 133.582H533.842l233.619-500.554c3.725-8.125 2.539-15.573-3.555-22.344l0.002-0.001c-5.078-5.079-10.834-7.617-17.266-7.617-1.354 0-3.387 0.338-6.094 1.015l-201.1 49.767 86.838-235.123c1.693-3.386 2.539-6.433 2.539-9.14 0-5.756-2.199-10.75-6.602-14.981-4.4-4.232-9.818-6.347-16.252-6.347H439.406c-5.416 0-10.156 1.522-14.219 4.57s-6.771 6.94-8.125 11.68L314.99 523.874c-1.692 8.125 0.508 14.727 6.602 19.805 4.4 3.725 9.648 5.586 15.742 5.586 2.709 0 4.739-0.17 6.094-0.508l206.178-51.289-82.05 336.525H235.567l-18.424-133.582H111.198c-13.818 0-23.031 9.213-23.031 23.033v142.795c0 36.85 32.852 69.094 69.094 69.094h703.87c45.728 0 73.701-27.637 73.701-69.094V723.444c0-13.82-9.213-23.033-23.031-23.033z" p-id="8206"></path></svg>