<?xml version="1.0" standalone="no"?><!DOCTYPE svg PUBLIC "-//W3C//DTD SVG 1.1//EN" "http://www.w3.org/Graphics/SVG/1.1/DTD/svg11.dtd"><svg t="1574317317769" class="icon" viewBox="0 0 1024 1024" version="1.1" xmlns="http://www.w3.org/2000/svg" p-id="3788" xmlns:xlink="http://www.w3.org/1999/xlink" width="128" height="128"><defs><style type="text/css"></style></defs><path d="M52.0704 10.752v970.7008a20.48 20.48 0 0 0 31.1808 17.408l413.2864-253.5936 414.9248 255.2832a20.48 20.48 0 0 0 31.232-17.408V11.0592a10.24 10.24 0 0 0-10.24-10.24L62.3104 0.512a10.24 10.24 0 0 0-10.24 10.24z m662.1184 194.1504v44.9024h-114.3808l-8.192 49.0496h116.4288v215.5008h-48.9984V343.7568H487.424v174.6432h-48.9984V298.8544h102.144l8.192-49.0496H432.2304v-44.9024h281.9072z m-349.2864 44.9024v365.1584H279.04l-16.3328-42.3936h51.0464V249.8048h-48.9984v-44.9024h148.0704v44.9024h-47.9744z m350.3104 369.2032l-144.0256-77.1072-142.9504 79.1552v-53.6064l118.4256-66.4064V380.5696h49.0496v119.4496l119.5008 65.3824v53.6064z" fill="#F88F57" p-id="3789"></path></svg>